HIERARCHY
ROOT hip
{
  OFFSET 0 0 0
  CHANNELS 6 Xposition Yposition Zposition Zrotation Yrotation Xrotation
  JOINT abdomen
  {
    OFFSET 0 20.6881 -0.73152
    CHANNELS 3 Zrotation Xrotation Yrotation
    JOINT chest
    {
      OFFSET 0 11.7043 -0.48768
      CHANNELS 3 Zrotation Xrotation Yrotation
      JOINT neck
      {
        OFFSET 0 22.1894 -2.19456
        CHANNELS 3 Zrotation Xrotation Yrotation
        JOINT head
        {
          OFFSET -0.24384 7.07133 1.2192
          CHANNELS 3 Zrotation Xrotation Yrotation
          JOINT leftEye
          {
            OFFSET 4.14528 8.04674 8.04672
            CHANNELS 3 Zrotation Xrotation Yrotation
            End Site
            {
              OFFSET 1 0 0
            }
          }
          JOINT rightEye
          {
            OFFSET -3.6576 8.04674 8.04672
            CHANNELS 3 Zrotation Xrotation Yrotation
            End Site
            {
              OFFSET 1 0 0
            }
          }
        }
      }
      JOINT rCollar
      {
        OFFSET -2.68224 19.2634 -4.8768
        CHANNELS 3 Zrotation Xrotation Yrotation
        JOINT rShldr
        {
          OFFSET -8.77824 -1.95073 1.46304
          CHANNELS 3 Zrotation Xrotation Yrotation
          JOINT rForeArm
          {
            OFFSET -28.1742 -1.7115 0.48768
            CHANNELS 3 Zrotation Xrotation Yrotation
            JOINT rHand
            {
              OFFSET -22.5879 0.773209 7.07136
              CHANNELS 3 Zrotation Xrotation Yrotation
              JOINT rThumb1
              {
                OFFSET -1.2192 -0.487915 3.41376
                CHANNELS 3 Zrotation Xrotation Yrotation
                JOINT rThumb2
                {
                  OFFSET -3.37035 -0.52449 3.41376
                  CHANNELS 3 Zrotation Xrotation Yrotation
                  End Site
                  {
                    OFFSET -1.78271 -1.18214 1.43049
                  }
                }
              }
              JOINT rIndex1
              {
                OFFSET -7.75947 0.938293 5.60832
                CHANNELS 3 Zrotation Xrotation Yrotation
                JOINT rIndex2
                {
                  OFFSET -2.54057 -0.884171 1.56538
                  CHANNELS 3 Zrotation Xrotation Yrotation
                  End Site
                  {
                    OFFSET -1.62519 -0.234802 1.16502
                  }
                }
              }
              JOINT rMid1
              {
                OFFSET -8.24714 1.18213 3.41376
                CHANNELS 3 Zrotation Xrotation Yrotation
                JOINT rMid2
                {
                  OFFSET -3.10165 -0.590103 1.0647
                  CHANNELS 3 Zrotation Xrotation Yrotation
                  End Site
                  {
                    OFFSET -2.48547 -0.328903 0.83742
                  }
                }
              }
              JOINT rRing1
              {
                OFFSET -8.82822 0.546677 1.51678
                CHANNELS 3 Zrotation Xrotation Yrotation
                JOINT rRing2
                {
                  OFFSET -2.60934 -0.819778 -0.0198488
                  CHANNELS 3 Zrotation Xrotation Yrotation
                  End Site
                  {
                    OFFSET -2.33842 -0.294052 0.168128
                  }
                }
              }
              JOINT rPinky1
              {
                OFFSET -8.27202 -0.0477905 -0.4584
                CHANNELS 3 Zrotation Xrotation Yrotation
                JOINT rPinky2
                {
                  OFFSET -1.82734 -0.647385 -0.700984
                  CHANNELS 3 Zrotation Xrotation Yrotation
                  End Site
                  {
                    OFFSET -1.69225 -0.51767 -0.607171
                  }
                }
              }
            }
          }
        }
      }
      JOINT lCollar
      {
        OFFSET 2.68224 19.2634 -4.8768
        CHANNELS 3 Zrotation Xrotation Yrotation
        JOINT lShldr
        {
          OFFSET 8.77824 -1.95073 1.46304
          CHANNELS 3 Zrotation Xrotation Yrotation
          JOINT lForeArm
          {
            OFFSET 28.1742 -1.7115 0.48768
            CHANNELS 3 Zrotation Xrotation Yrotation
            JOINT lHand
            {
              OFFSET 22.5879 0.773209 7.07136
              CHANNELS 3 Zrotation Xrotation Yrotation
              JOINT lThumb1
              {
                OFFSET 1.2192 -0.487915 3.41376
                CHANNELS 3 Zrotation Xrotation Yrotation
                JOINT lThumb2
                {
                  OFFSET 3.37035 -0.52449 3.41376
                  CHANNELS 3 Zrotation Xrotation Yrotation
                  End Site
                  {
                    OFFSET 1.78271 -1.18214 1.43049
                  }
                }
              }
              JOINT lIndex1
              {
                OFFSET 7.75947 0.938293 5.60832
                CHANNELS 3 Zrotation Xrotation Yrotation
                JOINT lIndex2
                {
                  OFFSET 2.54057 -0.884171 1.56538
                  CHANNELS 3 Zrotation Xrotation Yrotation
                  End Site
                  {
                    OFFSET 1.62519 -0.234802 1.16502
                  }
                }
              }
              JOINT lMid1
              {
                OFFSET 8.24714 1.18213 3.41376
                CHANNELS 3 Zrotation Xrotation Yrotation
                JOINT lMid2
                {
                  OFFSET 3.10165 -0.590103 1.0647
                  CHANNELS 3 Zrotation Xrotation Yrotation
                  End Site
                  {
                    OFFSET 2.48547 -0.328903 0.83742
                  }
                }
              }
              JOINT lRing1
              {
                OFFSET 8.82822 0.546677 1.51678
                CHANNELS 3 Zrotation Xrotation Yrotation
                JOINT lRing2
                {
                  OFFSET 2.60934 -0.819778 -0.0198488
                  CHANNELS 3 Zrotation Xrotation Yrotation
                  End Site
                  {
                    OFFSET 2.33842 -0.294052 0.168128
                  }
                }
              }
              JOINT lPinky1
              {
                OFFSET 8.27202 -0.0477905 -0.4584
                CHANNELS 3 Zrotation Xrotation Yrotation
                JOINT lPinky2
                {
                  OFFSET 1.82734 -0.647385 -0.700984
                  CHANNELS 3 Zrotation Xrotation Yrotation
                  End Site
                  {
                    OFFSET 1.69225 -0.51767 -0.607171
                  }
                }
              }
            }
          }
        }
      }
    }
  }
  JOINT rButtock
  {
    OFFSET -8.77824 4.35084 1.2192
    CHANNELS 3 Zrotation Xrotation Yrotation
    JOINT rThigh
    {
      OFFSET 0 -1.70687 -2.19456
      CHANNELS 3 Zrotation Xrotation Yrotation
      JOINT rShin
      {
        OFFSET 0 -36.8199 0.73152
        CHANNELS 3 Zrotation Xrotation Yrotation
        JOINT rFoot
        {
          OFFSET 0.73152 -45.1104 -5.12064
          CHANNELS 3 Zrotation Xrotation Yrotation
          End Site
          {
            OFFSET -1.1221 -3.69964 12.103
          }
        }
      }
    }
  }
  JOINT lButtock
  {
    OFFSET 8.77824 4.35084 1.2192
    CHANNELS 3 Zrotation Xrotation Yrotation
    JOINT lThigh
    {
      OFFSET 0 -1.70687 -2.19456
      CHANNELS 3 Zrotation Xrotation Yrotation
      JOINT lShin
      {
        OFFSET 0 -36.8199 0.73152
        CHANNELS 3 Zrotation Xrotation Yrotation
        JOINT lFoot
        {
          OFFSET -0.73152 -45.1104 -5.12064
          CHANNELS 3 Zrotation Xrotation Yrotation
          End Site
          {
            OFFSET 1.1221 -3.69964 12.103
          }
        }
      }
    }
  }
}
MOTION
Frames:	4
Frame Time:	0.03333
-0.9281000180635601 55.43330001831055 -17.43000005930662 -5.447100140154362 46.63139998912811 -1.5509000234305859 3.8015400990843773 17.382299602031708 -4.541640020906925 5.4000598937273026 -11.737799942493439 -0.3731599822640419 -8.454979956150055 20.952499508857727 -13.593600243330002 12.071199864149094 -35.58430105447769 -24.014798998832703 0.0 0.0 0.0 0.0 0.0 0.0 0.0 0.0 0.0 45.345699191093445 -3.885420151054859 33.18650007247925 -26.871399879455566 -25.916699767112732 60.744797587394714 -0.4639540147036314 18.992700576782227 2.77262007817626 -2.5579538487363607e-12 -4.1438852349529043e-10 1.5859313862165436e-10 1.2789769243681803e-12 -7.136691237974446e-10 2.7114310796605423e-10 -2.5579538487363607e-12 -4.1438852349529043e-10 1.5859313862165436e-10 7.7309102565050125 5.474880114197731 0.41731400415301323 -2.5579538487363607e-12 -4.1438852349529043e-10 1.5859313862165436e-10 2.905540131032467 0.9651830233633518 0.102901995414868 -2.5579538487363607e-12 -4.1438852349529043e-10 1.5859313862165436e-10 10.27859978377819 0.7318009994924068 0.025912300043273717 -2.5579538487363607e-12 -4.1438852349529043e-10 1.5859313862165436e-10 2.221670038998127 -0.733487019315362 -0.2089200052432716 0.0 0.0 0.0 -87.02769935131073 77.19560086727142 10.924000293016434 28.019299507141113 -40.293999910354614 -84.46340024471283 18.171400129795074 -71.60649955272675 25.001200139522552 -2.0092727481824113e-09 -1.4728698261023965e-08 7.418066161335446e-10 -3.4864910958276596e-09 -2.4865869363566162e-08 1.1510792319313623e-09 -2.0092727481824113e-09 -1.4728698261023965e-08 7.418066161335446e-10 -7.7309102565050125 5.474880114197731 -0.41731400415301323 -2.0092727481824113e-09 -1.4728698261023965e-08 7.418066161335446e-10 -2.905540131032467 0.9651830233633518 -0.102901995414868 -2.0092727481824113e-09 -1.4728698261023965e-08 7.418066161335446e-10 -10.27859978377819 0.7318009994924068 -0.025912300043273717 -2.0092727481824113e-09 -1.4728698261023965e-08 7.418066161335446e-10 -2.221670038998127 -0.733487019315362 0.2089200052432716 0.0 0.0 0.0 -44.49099987745285 -54.944000244140625 -43.947399258613586 -1.1300999857485294 59.73620116710663 1.1967500299215317 0.7129480037838221 10.894400104880333 -1.2073799595236778 0.0 0.0 0.0 29.615398943424225 -35.33729910850525 19.325699508190155 68.55010092258453 89.16800022125244 -71.47619783878326 5.197469964623451 -17.953800559043884 19.25200045108795
-0.662800012389198 55.77360153198242 -19.067000024020672 -4.901499934494495 45.21349847316742 -1.2887000106275082 3.9945699647068977 17.8090001642704 -4.605170153081417 5.371229834854603 -11.61310002207756 -0.3872749814763665 -8.393629789352417 20.83690032362938 -13.182099759578705 11.888600438833237 -35.820201337337494 -23.227699398994446 0.0 0.0 0.0 0.0 0.0 0.0 0.0 0.0 0.0 44.460800886154175 -3.2238100469112396 33.608199656009674 -26.638798713684082 -25.198801159858704 59.5963990688324 -0.46964901499450207 19.105699360370636 2.7903799898922443 -2.737010618147906e-10 -5.576339390245266e-10 4.604316927725449e-10 -4.6426862354564946e-10 -9.43884970183717e-10 7.929656931082718e-10 -2.737010618147906e-10 -5.576339390245266e-10 4.604316927725449e-10 7.7309102565050125 5.474880114197731 0.41731400415301323 -2.737010618147906e-10 -5.576339390245266e-10 4.604316927725449e-10 2.905540131032467 0.9651830233633518 0.102901995414868 -2.737010618147906e-10 -5.576339390245266e-10 4.604316927725449e-10 10.27859978377819 0.7318009994924068 0.025912300043273717 -2.737010618147906e-10 -5.576339390245266e-10 4.604316927725449e-10 2.221670038998127 -0.733487019315362 -0.2089200052432716 0.0 0.0 0.0 -82.60790169239044 76.84820115566254 5.957439690828323 28.128401041030884 -39.680399000644684 -83.34719896316528 17.215899378061295 -70.93320071697235 23.992300629615784 -2.3955237793416018e-09 -1.7596164525457425e-08 1.1101519703515805e-09 -4.1669068195915315e-09 -2.975156121465261e-08 1.7547563402331434e-09 -2.3955237793416018e-09 -1.7596164525457425e-08 1.1101519703515805e-09 -7.7309102565050125 5.474880114197731 -0.41731400415301323 -2.3955237793416018e-09 -1.7596164525457425e-08 1.1101519703515805e-09 -2.905540131032467 0.9651830233633518 -0.102901995414868 -2.3955237793416018e-09 -1.7596164525457425e-08 1.1101519703515805e-09 -10.27859978377819 0.7318009994924068 -0.025912300043273717 -2.3955237793416018e-09 -1.7596164525457425e-08 1.1101519703515805e-09 -2.221670038998127 -0.733487019315362 0.2089200052432716 0.0 0.0 0.0 -41.703999638557434 -55.37779927253723 -39.27489995956421 -0.9593020286411047 56.8163001537323 0.9901880007237196 0.9303319919854403 12.989299893379211 -1.803240068256855 0.0 0.0 0.0 25.348900258541107 -35.85549920797348 15.25240033864975 51.85020089149475 89.00350034236908 -54.63699996471405 5.488539934158325 -17.57460057735443 20.212799906730652
-0.3343000097665936 56.222599029541016 -20.825000040233135 -4.063500054180622 43.4852010011673 -0.891899960115552 3.9209701493382454 18.300899863243103 -4.652490019798279 5.435949862003326 -11.440400630235672 -0.40345000103116035 -8.312399759888649 20.635699778795242 -12.69359976053238 11.713099479675293 -35.99209874868393 -22.276900559663773 0.0 0.0 0.0 0.0 0.0 0.0 0.0 0.0 0.0 43.72580051422119 -2.4776900745928288 34.12480115890503 -26.3877010345459 -24.472601115703583 58.429198265075684 -0.483159008435905 19.365400224924088 2.831380069255829 -7.392486622848082e-10 9.848122317634989e-10 2.445403879391961e-09 -1.2457235243346076e-09 1.7905676941154525e-09 4.225739758112468e-09 -7.392486622848082e-10 9.848122317634989e-10 2.445403879391961e-09 7.7309102565050125 5.474880114197731 0.41731400415301323 -7.392486622848082e-10 9.848122317634989e-10 2.445403879391961e-09 2.905540131032467 0.9651830233633518 0.102901995414868 -7.392486622848082e-10 9.848122317634989e-10 2.445403879391961e-09 10.27859978377819 0.7318009994924068 0.025912300043273717 -7.392486622848082e-10 9.848122317634989e-10 2.445403879391961e-09 2.221670038998127 -0.733487019315362 -0.2089200052432716 0.0 0.0 0.0 -77.43230044841766 76.19649946689606 0.05480789754074067 28.236300945281982 -38.87179881334305 -81.943598985672 16.321700513362885 -70.25070190429688 23.04430067539215 -1.099920154956635e-09 -1.2487930689530913e-08 1.7394086171407253e-09 -1.978577301997575e-09 -2.150727596017532e-08 2.9058355721645057e-09 -1.099920154956635e-09 -1.2487930689530913e-08 1.7394086171407253e-09 -7.7309102565050125 5.474880114197731 -0.41731400415301323 -1.099920154956635e-09 -1.2487930689530913e-08 1.7394086171407253e-09 -2.905540131032467 0.9651830233633518 -0.102901995414868 -1.099920154956635e-09 -1.2487930689530913e-08 1.7394086171407253e-09 -10.27859978377819 0.7318009994924068 -0.025912300043273717 -1.099920154956635e-09 -1.2487930689530913e-08 1.7394086171407253e-09 -2.221670038998127 -0.733487019315362 0.2089200052432716 0.0 0.0 0.0 -38.473498821258545 -55.53820073604584 -33.70110064744949 -0.7975219935178757 53.28920066356659 0.770769976079464 1.2357699684798717 15.41999951004982 -2.63629999011755 0.0 0.0 0.0 20.376799553632736 -35.856400430202484 11.038100123405457 29.31709975004196 88.38249921798706 -31.932199895381927 5.960659682750702 -17.037000060081482 21.750800013542175
0.0355999784078449 56.73849868774414 -22.645000092685223 -2.991200163960457 41.41109973192215 -0.4232999822124839 3.4637899696826935 18.876099586486816 -4.544690027832985 5.582720004022121 -11.280400156974792 -0.3876810008659959 -8.204760029911995 20.36419987678528 -12.149000018835068 11.579100340604782 -36.16480082273483 -21.193899661302567 0.0 0.0 0.0 0.0 0.0 0.0 0.0 0.0 0.0 43.089100420475006 -1.574000045657158 34.501600563526154 -26.154700219631195 -23.838800489902496 57.42470026016235 -0.4868509853258729 19.434500634670258 2.842320129275322 -6.778577699151356e-10 3.4020786188193597e-09 3.5504399420460686e-09 -1.1242207165196305e-09 6.01630745222792e-09 6.139089236967266e-09 -6.778577699151356e-10 3.4020786188193597e-09 3.5504399420460686e-09 7.7309102565050125 5.474880114197731 0.41731400415301323 -6.778577699151356e-10 3.4020786188193597e-09 3.5504399420460686e-09 2.905540131032467 0.9651830233633518 0.102901995414868 -6.778577699151356e-10 3.4020786188193597e-09 3.5504399420460686e-09 10.27859978377819 0.7318009994924068 0.025912300043273717 -6.778577699151356e-10 3.4020786188193597e-09 3.5504399420460686e-09 2.221670038998127 -0.733487019315362 -0.2089200052432716 0.0 0.0 0.0 -71.8090009689331 75.26579976081848 -6.472380235791206 28.348800837993622 -37.87080109119415 -80.16049861907959 15.970399528741837 -69.96589958667755 22.670599222183228 4.3101522351207677e-10 -3.893205757776741e-09 1.8110313249053434e-09 6.446043698815629e-10 -7.04972080711741e-09 3.100240064668469e-09 4.3101522351207677e-10 -3.893205757776741e-09 1.8110313249053434e-09 -7.7309102565050125 5.474880114197731 -0.41731400415301323 4.3101522351207677e-10 -3.893205757776741e-09 1.8110313249053434e-09 -2.905540131032467 0.9651830233633518 -0.102901995414868 4.3101522351207677e-10 -3.893205757776741e-09 1.8110313249053434e-09 -10.27859978377819 0.7318009994924068 -0.025912300043273717 4.3101522351207677e-10 -3.893205757776741e-09 1.8110313249053434e-09 -2.221670038998127 -0.733487019315362 0.2089200052432716 0.0 0.0 0.0 -34.977598786354065 -55.50689935684204 -27.421799898147583 -0.6445839861407876 49.20620262622833 0.5502009904012084 1.542229950428009 17.18840003013611 -3.3978699892759323 0.0 0.0 0.0 15.193000137805939 -35.38429945707321 7.0693400502204895 17.01130047440529 87.29960024356842 -19.454399943351746 6.49042010307312 -16.54740035533905 23.41559886932373
